<?xml version="1.0" encoding="utf-8"?>
<svg xmlns="http://www.w3.org/2000/svg" viewBox="0 0 64 64" width="512" height="512">
  <path d="M26.964844 6.921875C24.483535 6.8432617 21.560469 7.4708594 18.699219 8.3808594C19.689219 12.400859 20.460781 16.429531 21.050781 20.519531C21.380781 22.879531 21.639063 25.260391 21.789062 27.650391C21.849062 28.850391 21.910156 30.05 21.910156 31.25C21.920156 31.92 21.9 32.310234 22 32.740234C22.09 33.170234 22.26 33.579219 22.5 33.949219C22.99 34.699219 23.689375 35.249297 24.609375 35.529297L27.960938 36.630859L34.669922 38.830078L38.029297 39.929688L39.669922 40.460938C40.119922 40.590937 40.580781 40.649141 41.050781 40.619141C41.970781 40.549141 42.879063 40.16 43.539062 39.5C43.799063 39.26 44.139219 38.819922 44.449219 38.419922C42.299219 37.929922 40.030234 36.890859 37.990234 34.880859L35.929688 36.25C35.679688 36.42 35.389609 36.5 35.099609 36.5C34.619609 36.5 34.139609 36.270078 33.849609 35.830078C33.389609 35.140078 33.579531 34.21 34.269531 33.75L36.060547 32.560547C35.940547 32.380547 35.819219 32.19 35.699219 32C35.379219 31.49 35.069297 30.969453 34.779297 30.439453L31.169922 32.240234C30.959922 32.350234 30.73 32.400391 30.5 32.400391C29.95 32.400391 29.420156 32.100313 29.160156 31.570312C28.790156 30.830313 29.090078 29.930547 29.830078 29.560547L33.429688 27.759766C33.059687 26.989766 32.729687 26.209688 32.429688 25.429688L27.970703 26.919922C27.820703 26.979922 27.66 27 27.5 27C26.87 27 26.290078 26.600703 26.080078 25.970703C25.820078 25.190703 26.239297 24.340078 27.029297 24.080078L31.400391 22.619141C31.120391 21.799141 30.860859 20.979922 30.630859 20.169922L25.75 20.980469C25.66 20.990469 25.58 21 25.5 21C24.78 21 24.139531 20.48 24.019531 19.75C23.879531 18.93 24.44 18.159531 25.25 18.019531L29.839844 17.259766C29.579844 16.209766 29.350391 15.2 29.150391 14.25L24.75 14.980469C24.66 14.990469 24.58 15 24.5 15C23.78 15 23.139531 14.48 23.019531 13.75C22.879531 12.93 23.44 12.159531 24.25 12.019531L28.599609 11.300781C28.159609 8.6807812 28 7 28 7C27.665 6.95875 27.319316 6.9331055 26.964844 6.921875 z M 15.900391 9.3691406C10.520391 11.409141 6 14 6 14C6.37 16.35 6.6405469 18.729844 6.8105469 21.089844C9.3805469 19.859844 13.519922 18.069688 17.669922 17.179688C17.159922 14.549687 16.570391 11.939141 15.900391 9.3691406 z M 18.199219 20.140625C13.729219 21.120625 9.14 23.269375 7 24.359375C7.36 32.569375 6.7801563 40.379922 6.1601562 45.919922C7.4001562 46.569922 11.59 48.5 17 48.5C20.63 48.5 22.529141 48.089453 24.369141 47.689453C25.999141 47.329453 27.55 47 30 47C32.56 47 34.180234 47.380234 35.740234 47.740234C37.360234 48.110234 39.04 48.5 42 48.5C49.28 48.5 56.700781 45.730859 58.800781 44.880859C57.760781 39.590859 53 38 53 38C53 38 50.279297 38.989766 46.779297 38.759766L46.189453 39.509766C45.809453 39.979766 45.52 40.410938 45 40.960938C44 41.980938 42.630938 42.620234 41.210938 42.740234C40.500938 42.800234 39.779844 42.729062 39.089844 42.539062L37.359375 42.009766L33.990234 40.970703L27.240234 38.890625L23.869141 37.849609C22.519141 37.469609 21.220156 36.550312 20.410156 35.320312C20.000156 34.710312 19.699297 34.030781 19.529297 33.300781C19.349297 32.590781 19.359844 31.789297 19.339844 31.279297C19.329844 30.129297 19.249922 28.980078 19.169922 27.830078C18.979922 25.530078 18.700078 23.219687 18.330078 20.929688C18.290078 20.669688 18.239219 20.400625 18.199219 20.140625 z M 59.160156 47.970703C56.200156 49.110703 49.16 51.5 42 51.5C38.69 51.5 36.770313 51.050156 35.070312 50.660156C33.540312 50.310156 32.21 50 30 50C27.87 50 26.54 50.289141 25 50.619141C23.11 51.029141 20.95 51.5 17 51.5C11.93 51.5 7.8595313 50.020313 5.7695312 49.070312C5.3495313 52.160313 5 54 5 54C5 54 5.8799219 54.530625 7.4199219 55.140625L7.8691406 53.359375L9.8105469 53.849609L9.3105469 55.810547C10.380547 56.140547 11.62 56.459922 13 56.669922L13.300781 54.679688L15.279297 54.980469L14.990234 56.919922C15.640234 56.969922 16.31 57 17 57C17.73 57 18.390234 56.979219 18.990234 56.949219L18.890625 55.060547L20.890625 54.949219L20.990234 56.789062C22.790234 56.599063 24.059844 56.289531 25.339844 56.019531L25.019531 54.179688L26.980469 53.830078L27.310547 55.669922C28.090547 55.569922 28.96 55.5 30 55.5C30.31 55.5 30.610625 55.509531 30.890625 55.519531L31 53.929688L33 54.070312L32.890625 55.699219C34.290625 55.899219 35.400703 56.220234 36.720703 56.490234L37.019531 54.830078L38.980469 55.169922L38.689453 56.810547C39.609453 56.930547 40.69 57 42 57C42.38 57 42.750859 56.990469 43.130859 56.980469L43 55.210938L45 55.070312L45.119141 56.849609C46.619141 56.709609 48.080469 56.490938 49.480469 56.210938L49.039062 54.570312L50.970703 54.050781L51.429688 55.779297C52.899687 55.439297 54.249922 55.049687 55.419922 54.679688L54.939453 52.890625L56.869141 52.380859L57.310547 54.039062L57.320312 54.039062C58.990312 53.449062 60 53 60 53L59.160156 47.970703 z" fill="#FFFFFF" />
</svg>