<?xml version="1.0" encoding="utf-8"?>
<svg xmlns="http://www.w3.org/2000/svg" viewBox="0 0 64 64" width="512" height="512">
  <path d="M25 6L22.810547 6.5996094C23.300547 8.2896094 24.339219 9.7796094 25.699219 10.849609C27.469219 12.249609 29.73 13.01 32 13C34.27 13.01 36.530781 12.249609 38.300781 10.849609C39.660781 9.7796094 40.699453 8.2896094 41.189453 6.5996094L39 6C39 6 37 10 32 10C27 10 25 6 25 6 z M 21.589844 6.9296875L14 9L1 20L7 30L12.759766 28.560547L14 23L15 22.699219L15 56C15 56 22 58 32 58C42 58 49 56 49 56L49 22.699219L50 23L51.240234 28.560547L57 30L63 20L50 9L42.410156 6.9296875C42.300156 7.6096875 42.100078 8.2896875 41.830078 8.9296875C41.280078 10.169688 40.449219 11.279453 39.449219 12.189453C37.439219 14.039453 34.7 14.99 32 15C29.3 14.99 26.560781 14.039453 24.550781 12.189453C23.550781 11.279453 22.719922 10.169688 22.169922 8.9296875C21.899922 8.2896875 21.699844 7.6096875 21.589844 6.9296875 z" fill="#FFFFFF" />
</svg>