<?xml version="1.0" encoding="utf-8"?>
<svg xmlns="http://www.w3.org/2000/svg" viewBox="0 0 64 64" width="512" height="512">
  <path d="M16 2L16 5L24.039062 5.25L24.140625 2L16 2 z M 26.130859 2L26.039062 5.3105469L37.660156 5.6796875L37.660156 2L26.130859 2 z M 39.660156 2L39.660156 5.7402344L48 6L48 2L39.660156 2 z M 16 8L15.890625 13.929688C16.460625 13.829688 17.039844 13.650156 17.589844 13.410156C18.449844 13.040156 19.260938 12.530391 19.960938 11.900391C21.110937 10.870391 21.930937 9.5 22.210938 8L16 8 z M 23.619141 8C23.539141 8.79 23.339531 9.5803125 23.019531 10.320312C22.569531 11.360312 21.899375 12.309609 21.109375 13.099609C20.309375 13.899609 19.389141 14.560312 18.369141 15.070312C17.589141 15.450313 16.759609 15.760156 15.849609 15.910156L15 62L26 62L31.142578 26L32.857422 26L38 62L49 62L48.150391 15.910156C47.240391 15.760156 46.410859 15.450312 45.630859 15.070312C44.610859 14.560313 43.690625 13.899609 42.890625 13.099609C42.100625 12.309609 41.430469 11.360313 40.980469 10.320312C40.660469 9.5803125 40.460859 8.79 40.380859 8L23.619141 8 z M 41.789062 8C42.069062 9.5 42.889063 10.870391 44.039062 11.900391C44.739062 12.530391 45.550156 13.040156 46.410156 13.410156C46.960156 13.650156 47.539375 13.829688 48.109375 13.929688L48 8L41.789062 8 z" fill="#FFFFFF" />
</svg>